<?xml version="1.0" encoding="iso-8859-1"?>
<!-- Generator: Adobe Illustrator 19.0.0, SVG Export Plug-In . SVG Version: 6.00 Build 0)  -->
<svg version="1.1" id="Capa_1" xmlns="http://www.w3.org/2000/svg" xmlns:xlink="http://www.w3.org/1999/xlink" x="0px" y="0px"
	 viewBox="0 0 464 464" style="enable-background:new 0 0 464 464;" xml:space="preserve">
<g>
	<g>
		<path d="M392,32h-96c-22.056,0-40,17.944-40,40v96c0,22.056,17.944,40,40,40h96c22.056,0,40-17.944,40-40V72
			C432,49.944,414.056,32,392,32z M416,168c0,13.232-10.768,24-24,24h-96c-13.232,0-24-10.768-24-24V72c0-13.232,10.768-24,24-24h96
			c13.232,0,24,10.768,24,24V168z"/>
	</g>
</g>
<g>
	<g>
		<path d="M168,256h-64c-22.056,0-40,17.944-40,40v64c0,22.056,17.944,40,40,40h64c22.056,0,40-17.944,40-40v-64
			C208,273.944,190.056,256,168,256z M192,360c0,13.232-10.768,24-24,24h-64c-13.232,0-24-10.768-24-24v-64
			c0-13.232,10.768-24,24-24h64c13.232,0,24,10.768,24,24V360z"/>
	</g>
</g>
<g>
	<g>
		<path d="M424,256H296c-22.056,0-40,17.944-40,40v128c0,22.056,17.944,40,40,40h128c22.056,0,40-17.944,40-40V296
			C464,273.944,446.056,256,424,256z M448,424c0,13.232-10.768,24-24,24H296c-13.232,0-24-10.768-24-24V296
			c0-13.232,10.768-24,24-24h128c13.232,0,24,10.768,24,24V424z"/>
	</g>
</g>
<g>
	<g>
		<path d="M168,0H40C17.944,0,0,17.944,0,40v128c0,22.056,17.944,40,40,40h128c22.056,0,40-17.944,40-40V40
			C208,17.944,190.056,0,168,0z M192,168c0,13.232-10.768,24-24,24H40c-13.232,0-24-10.768-24-24V40c0-13.232,10.768-24,24-24h128
			c13.232,0,24,10.768,24,24V168z"/>
	</g>
</g>
<g>
	<g>
		<path d="M72,160c-22.344,0-23.896-21.808-24-24v-32c0-4.424-3.576-8-8-8s-8,3.576-8,8v32.248C32,150,41.336,176,72,176
			c4.424,0,8-3.576,8-8S76.424,160,72,160z"/>
	</g>
</g>
<g>
	<g>
		<path d="M360,64h-32c-4.424,0-8,3.576-8,8s3.576,8,8,8h31.712c2.48,0,24.288,1.664,24.288,24c0,4.424,3.576,8,8,8s8-3.576,8-8
			C400,73.344,374,64.432,360,64z"/>
	</g>
</g>
<g>
	<g>
		<path d="M424,352c-4.424,0-8,3.576-8,8v32c0,7.608-2.048,13.472-6.08,17.432c-6.824,6.696-17.568,6.536-17.92,6.568h-32
			c-4.424,0-8,3.576-8,8s3.576,8,8,8h31.752c0.056,0,0.224,0,0.488,0c2.944,0,17.936-0.528,28.752-11.008
			C428.288,413.904,432,404.152,432,392v-32C432,355.576,428.424,352,424,352z"/>
	</g>
</g>
<g>
	<g>
		<path d="M328,288.008c-31.64,0-40,26.168-40,40.008c0,4.392,3.552,7.984,7.952,7.984c0.016,0,0.032,0,0.048,0
			c4.384,0,7.952-3.56,8-7.944c0.048-4.016,1.416-24.056,24-24.056c4.424,0,8-3.576,8-8S332.424,288.008,328,288.008z"/>
	</g>
</g>
<g>
</g>
<g>
</g>
<g>
</g>
<g>
</g>
<g>
</g>
<g>
</g>
<g>
</g>
<g>
</g>
<g>
</g>
<g>
</g>
<g>
</g>
<g>
</g>
<g>
</g>
<g>
</g>
<g>
</g>
</svg>
