<svg id="Capa_1" enable-background="new 0 0 512 512" height="512" viewBox="0 0 512 512" width="512" xmlns="http://www.w3.org/2000/svg"><g><path d="m120 46c-66.168 0-120 53.832-120 120 0 61.089 45.885 111.66 105 119.064v165.936c0 8.284 6.716 15 15 15s15-6.716 15-15v-165.936c59.115-7.404 105-57.975 105-119.064 0-66.168-53.832-120-120-120zm0 210c-49.626 0-90-40.374-90-90s40.374-90 90-90 90 40.374 90 90-40.374 90-90 90z"/><path d="m512 166c0-66.168-53.832-120-120-120s-120 53.832-120 120c0 61.089 45.885 111.66 105 119.064v165.936c0 8.284 6.716 15 15 15s15-6.716 15-15v-165.936c59.115-7.404 105-57.975 105-119.064zm-120 90c-49.626 0-90-40.374-90-90s40.374-90 90-90 90 40.374 90 90-40.374 90-90 90z"/><path d="m162.426 123.574c-5.857-5.858-15.355-5.858-21.213 0l-21.213 21.213-21.213-21.213c-5.856-5.857-15.354-5.858-21.213 0-5.858 5.857-5.858 15.355 0 21.213l21.213 21.213-21.213 21.213c-5.858 5.858-5.858 15.355 0 21.213 5.857 5.858 15.355 5.859 21.213 0l21.213-21.213 21.213 21.213c5.857 5.858 15.355 5.858 21.213 0 5.858-5.857 5.858-15.355 0-21.213l-21.213-21.213 21.213-21.213c5.858-5.858 5.858-15.356 0-21.213z"/><path d="m428.213 123.574-51.213 51.213-21.213-21.213c-5.856-5.858-15.354-5.858-21.213 0-5.858 5.857-5.858 15.355 0 21.213l31.819 31.82c2.813 2.812 6.628 4.393 10.607 4.393s7.794-1.581 10.606-4.394l61.819-61.82c5.858-5.858 5.858-15.355 0-21.213-5.857-5.858-15.355-5.858-21.212.001z"/></g></svg>