<svg id="Capa_1" enable-background="new 0 0 512 512" height="512" viewBox="0 0 512 512" width="512" xmlns="http://www.w3.org/2000/svg"><g><path d="m256 74.723c-71.158 0-129.049 57.891-129.049 129.049s57.891 129.049 129.049 129.049 129.049-57.891 129.049-129.049-57.891-129.049-129.049-129.049zm0 228.041c-54.585 0-98.992-44.407-98.992-98.992s44.407-98.992 98.992-98.992 98.992 44.407 98.992 98.992-44.407 98.992-98.992 98.992z"/><path d="m256 0c-112.36 0-203.772 91.411-203.772 203.772 0 43.688 13.626 85.341 39.406 120.459 24.119 32.853 56.819 57.356 94.839 71.13l69.302 116.639 72.375-117.615c78.953-29.878 131.622-105.793 131.622-190.613 0-112.361-91.412-203.772-203.772-203.772zm57.151 367.858-5.052 1.759-51.874 84.298-49.583-83.453-5.326-1.765c-71.195-23.594-119.03-89.872-119.03-164.926 0-95.787 77.928-173.715 173.715-173.715s173.715 77.928 173.715 173.715c-.001 73.863-46.845 139.805-116.565 164.087z"/><path d="m284.541 153.978-28.541 28.541-28.541-28.541-21.253 21.253 28.541 28.541-28.541 28.541 21.253 21.253 28.541-28.541 28.541 28.541 21.253-21.253-28.541-28.541 28.541-28.541z"/></g></svg>