<svg id="Layer_1" enable-background="new 0 0 512 512" height="512" viewBox="0 0 512 512" width="512" xmlns="http://www.w3.org/2000/svg"><path d="m256 0c-110.28 0-200 89.72-200 200 0 76.247 47.191 153.178 95.636 212.156 46.448 56.544 92.247 94.587 94.174 96.179 5.914 4.887 14.466 4.887 20.38 0 56.324-46.521 124.448-124.334 159.371-194.18 20.198-40.395 30.439-78.802 30.439-114.155 0-110.28-89.72-200-200-200zm0 474.773c-37.847-33.929-168-159.053-168-274.773 0-92.636 75.364-168 168-168s168 75.364 168 168c0 115.72-130.156 240.846-168 274.773z"/><path d="m256 64c-74.991 0-136 61.01-136 136 0 46.9 23.864 88.331 60.086 112.789.632.488 1.301.931 2.007 1.322 44.31 28.797 102.299 29.58 147.814 0 .706-.392 1.375-.834 2.007-1.322 36.222-24.458 60.086-65.889 60.086-112.789 0-74.99-61.009-136-136-136zm-48.893 227.767 1.352-10.141c3.166-23.73 23.604-41.626 47.541-41.626s44.375 17.896 47.541 41.625l1.353 10.142c-30.384 16.253-67.162 16.383-97.787 0zm32.893-99.767v-16c0-8.822 7.178-16 16-16s16 7.178 16 16v16c0 8.822-7.178 16-16 16s-16-7.178-16-16zm93.678 77.071c-5.266-21.604-19.271-39.602-37.831-50.338 9.584-14.241 8.153-25.963 8.153-42.733 0-26.468-21.533-48-48-48s-48 21.532-48 48c0 16.856-1.439 28.481 8.154 42.733-18.56 10.737-32.566 28.735-37.831 50.339-59.136-66.431-12.333-173.072 77.677-173.072 90.011 0 136.813 106.641 77.678 173.071z"/></svg>