<svg xmlns="http://www.w3.org/2000/svg" xmlns:xlink="http://www.w3.org/1999/xlink" version="1.1" id="Capa_1" x="0px" y="0px" viewBox="0 0 250 250" style="enable-background:new 0 0 464 464;" xml:space="preserve">
<g xmlns="http://www.w3.org/2000/svg">
	<g>
		<path d="M168,0H40C17.944,0,0,17.944,0,40v128c0,22.056,17.944,40,40,40h128c22.056,0,40-17.944,40-40V40    C208,17.944,190.056,0,168,0z M192,168c0,13.232-10.768,24-24,24H40c-13.232,0-24-10.768-24-24V40c0-13.232,10.768-24,24-24h128    c13.232,0,24,10.768,24,24V168z"/>
	</g>
</g>
<g xmlns="http://www.w3.org/2000/svg">
	<g>
		<path d="M72,160c-22.344,0-23.896-21.808-24-24v-32c0-4.424-3.576-8-8-8s-8,3.576-8,8v32.248C32,150,41.336,176,72,176    c4.424,0,8-3.576,8-8S76.424,160,72,160z"/>
	</g>
</g>
</svg>